<svg width="122" height="16" viewBox="0 0 122 16" fill="none" xmlns="http://www.w3.org/2000/svg">
<path d="M2.574 10.584H3.06C3.324 10.584 3.504 10.536 3.6 10.44C3.708 10.332 3.762 10.164 3.762 9.93602V1.62002H2.106C1.866 1.62002 1.692 1.67402 1.584 1.78202C1.476 1.87802 1.422 2.04002 1.422 2.26802V2.84402H-1.43051e-06V0.288015H9.414V2.84402H7.992V2.26802C7.992 2.02801 7.938 1.86001 7.83 1.76402C7.734 1.66802 7.56 1.62002 7.308 1.62002H5.67V9.93602C5.67 10.164 5.718 10.332 5.814 10.44C5.922 10.536 6.108 10.584 6.372 10.584H6.858V11.916H2.574V10.584ZM9.61945 10.584H10.0695C10.3095 10.584 10.4775 10.536 10.5735 10.44C10.6815 10.332 10.7355 10.158 10.7355 9.91802V5.27402C10.7355 5.04602 10.6875 4.87802 10.5915 4.77002C10.4955 4.66202 10.3335 4.60802 10.1055 4.60802H9.72745V3.27602H12.2115L12.4635 4.26602C12.7035 3.89402 13.0095 3.63602 13.3815 3.49202C13.7655 3.34802 14.2155 3.27602 14.7315 3.27602H15.5595V4.60802H14.5515C13.8675 4.60802 13.3815 4.76402 13.0935 5.07602C12.8055 5.37602 12.6615 5.84402 12.6615 6.48002V9.91802C12.6615 10.158 12.7095 10.332 12.8055 10.44C12.9015 10.536 13.0635 10.584 13.2915 10.584H13.7415V11.916H9.61945V10.584ZM18.8598 12.186C17.8998 12.186 17.1678 11.976 16.6638 11.556C16.1718 11.136 15.9258 10.542 15.9258 9.77402C15.9258 8.91002 16.1958 8.28002 16.7358 7.88402C17.2878 7.47602 18.0798 7.23602 19.1118 7.16402L21.6318 7.00202V5.90402C21.6318 5.34002 21.5118 4.93202 21.2718 4.68002C21.0318 4.42802 20.6238 4.30202 20.0478 4.30202C19.6518 4.30202 19.3218 4.33802 19.0578 4.41002C18.8058 4.47002 18.5718 4.57202 18.3558 4.71602V5.36402H16.6818V3.94202C17.6898 3.31802 18.8238 3.00602 20.0838 3.00602C22.3878 3.00602 23.5398 4.02602 23.5398 6.06602V10.008C23.5398 10.248 23.5818 10.422 23.6658 10.53C23.7618 10.638 23.9118 10.692 24.1158 10.692H24.5118V11.916H22.4418L22.2078 10.782C21.8238 11.274 21.3738 11.634 20.8578 11.862C20.3538 12.078 19.6878 12.186 18.8598 12.186ZM19.2918 10.89C20.0118 10.89 20.5818 10.734 21.0018 10.422C21.4218 10.11 21.6318 9.63602 21.6318 9.00002V8.13602L19.2558 8.31602C18.6678 8.35202 18.2598 8.47802 18.0318 8.69402C17.8038 8.89802 17.6898 9.22802 17.6898 9.68402C17.6898 10.08 17.8158 10.38 18.0678 10.584C18.3198 10.788 18.7278 10.89 19.2918 10.89ZM25.7991 5.00402C25.7391 4.81202 25.6491 4.68602 25.5291 4.62602C25.4211 4.55402 25.2171 4.51802 24.9171 4.51802H24.5391V3.27602H27.0411L29.2731 10.026L31.5051 3.27602H34.0071V4.51802H33.6111C33.3231 4.51802 33.1191 4.55402 32.9991 4.62602C32.8911 4.68602 32.8011 4.81202 32.7291 5.00402L30.2631 11.916H28.2831L25.7991 5.00402ZM38.3601 12.186C36.9921 12.186 35.8941 11.808 35.0661 11.052C34.2501 10.284 33.8421 9.16802 33.8421 7.70402C33.8421 6.14402 34.2201 4.97402 34.9761 4.19402C35.7441 3.40202 36.8301 3.00602 38.2341 3.00602C39.5901 3.00602 40.6161 3.39002 41.3121 4.15802C42.0081 4.92602 42.3561 5.96402 42.3561 7.27202V8.10002H35.7501C35.7501 9.07202 35.9841 9.79202 36.4521 10.26C36.9321 10.716 37.5741 10.944 38.3781 10.944C38.8341 10.944 39.2181 10.914 39.5301 10.854C39.8421 10.782 40.1241 10.668 40.3761 10.512V9.86402H42.0501V11.124C41.5461 11.484 41.0001 11.748 40.4121 11.916C39.8361 12.096 39.1521 12.186 38.3601 12.186ZM40.5021 6.93002C40.5021 5.17802 39.7401 4.30202 38.2161 4.30202C37.4121 4.30202 36.8001 4.53602 36.3801 5.00402C35.9601 5.47202 35.7501 6.11402 35.7501 6.93002H40.5021ZM43.5452 10.584H44.0672C44.3072 10.584 44.4752 10.53 44.5712 10.422C44.6792 10.314 44.7332 10.14 44.7332 9.90002V1.99802C44.7332 1.77002 44.6792 1.60801 44.5712 1.51202C44.4752 1.40402 44.3072 1.35002 44.0672 1.35002H43.5452V1.45435e-05H46.6592V9.91802C46.6592 10.146 46.7132 10.314 46.8212 10.422C46.9292 10.53 47.0972 10.584 47.3252 10.584H47.8472V11.916H43.5452V10.584ZM55.1468 10.62H55.5608C55.8008 10.62 55.9688 10.566 56.0648 10.458C56.1728 10.35 56.2268 10.176 56.2268 9.93602V2.23201C56.2268 2.00401 56.1728 1.84202 56.0648 1.74602C55.9688 1.63802 55.8008 1.58402 55.5608 1.58402H55.1468V0.270015H60.3308C61.9988 0.270015 63.2348 0.780015 64.0388 1.80001C64.8548 2.82002 65.2628 4.26602 65.2628 6.13802C65.2628 7.89002 64.8428 9.29402 64.0028 10.35C63.1748 11.394 61.9508 11.916 60.3308 11.916H55.1468V10.62ZM60.0788 10.62C61.2548 10.62 62.1008 10.248 62.6168 9.50402C63.1328 8.76002 63.3908 7.63802 63.3908 6.13802C63.3908 4.60202 63.1328 3.45602 62.6168 2.70002C62.1008 1.94401 61.2548 1.56601 60.0788 1.56601H58.1348V10.62H60.0788ZM68.6586 12.186C67.6986 12.186 66.9666 11.976 66.4626 11.556C65.9706 11.136 65.7246 10.542 65.7246 9.77402C65.7246 8.91002 65.9946 8.28002 66.5346 7.88402C67.0866 7.47602 67.8786 7.23602 68.9106 7.16402L71.4306 7.00202V5.90402C71.4306 5.34002 71.3106 4.93202 71.0706 4.68002C70.8306 4.42802 70.4226 4.30202 69.8466 4.30202C69.4506 4.30202 69.1206 4.33802 68.8566 4.41002C68.6046 4.47002 68.3706 4.57202 68.1546 4.71602V5.36402H66.4806V3.94202C67.4886 3.31802 68.6226 3.00602 69.8826 3.00602C72.1866 3.00602 73.3386 4.02602 73.3386 6.06602V10.008C73.3386 10.248 73.3806 10.422 73.4646 10.53C73.5606 10.638 73.7106 10.692 73.9146 10.692H74.3106V11.916H72.2406L72.0066 10.782C71.6226 11.274 71.1726 11.634 70.6566 11.862C70.1526 12.078 69.4866 12.186 68.6586 12.186ZM69.0906 10.89C69.8106 10.89 70.3806 10.734 70.8006 10.422C71.2206 10.11 71.4306 9.63602 71.4306 9.00002V8.13602L69.0546 8.31602C68.4666 8.35202 68.0586 8.47802 67.8306 8.69402C67.6026 8.89802 67.4886 9.22802 67.4886 9.68402C67.4886 10.08 67.6146 10.38 67.8666 10.584C68.1186 10.788 68.5266 10.89 69.0906 10.89ZM79.434 15.516C77.97 15.516 76.806 15.102 75.942 14.274V12.978H77.616V13.626C78.012 14.058 78.594 14.274 79.362 14.274C79.986 14.274 80.454 14.094 80.766 13.734C81.09 13.374 81.252 12.846 81.252 12.15V10.872C80.916 11.208 80.544 11.454 80.136 11.61C79.728 11.754 79.254 11.826 78.714 11.826C77.682 11.826 76.878 11.562 76.302 11.034C75.726 10.494 75.438 9.73802 75.438 8.76602V5.27402C75.438 5.04602 75.384 4.87802 75.276 4.77002C75.168 4.66202 75 4.60802 74.772 4.60802H74.25V3.27602H77.346V8.82002C77.346 9.99602 77.928 10.584 79.092 10.584C79.716 10.584 80.214 10.41 80.586 10.062C80.958 9.70202 81.144 9.18602 81.144 8.51402V5.27402C81.144 5.03402 81.096 4.86602 81 4.77002C80.916 4.66202 80.76 4.60802 80.532 4.60802H80.064V3.27602H83.07V11.754C83.07 12.894 82.74 13.806 82.08 14.49C81.432 15.174 80.55 15.516 79.434 15.516ZM84.8053 10.332H86.4793V11.916H84.8053V10.332ZM92.4681 12.186C91.6041 12.186 90.8181 12.012 90.1101 11.664C89.4141 11.316 88.8621 10.8 88.4541 10.116C88.0461 9.43202 87.8421 8.61602 87.8421 7.66802C87.8421 6.15602 88.2441 5.00402 89.0481 4.21202C89.8641 3.40802 90.9861 3.00602 92.4141 3.00602C93.1941 3.00602 93.8481 3.09001 94.3761 3.25801C94.9041 3.42602 95.4141 3.69602 95.9061 4.06802V5.79602H94.2321V4.80602C93.9561 4.65002 93.6921 4.54202 93.4401 4.48202C93.1881 4.42202 92.8461 4.39202 92.4141 4.39202C91.6101 4.39202 90.9561 4.66202 90.4521 5.20202C89.9601 5.73002 89.7141 6.55202 89.7141 7.66802C89.7141 8.72402 89.9961 9.51002 90.5601 10.026C91.1361 10.53 91.8681 10.782 92.7561 10.782C93.3081 10.782 93.7761 10.734 94.1601 10.638C94.5561 10.542 94.9281 10.38 95.2761 10.152L95.9421 11.25C95.4381 11.598 94.9221 11.838 94.3941 11.97C93.8781 12.114 93.2361 12.186 92.4681 12.186ZM101.288 12.186C99.8237 12.186 98.7197 11.784 97.9757 10.98C97.2317 10.176 96.8597 9.05402 96.8597 7.61402C96.8597 6.16202 97.2257 5.03402 97.9577 4.23002C98.7017 3.41402 99.8117 3.00602 101.288 3.00602C102.764 3.00602 103.868 3.41402 104.6 4.23002C105.344 5.03402 105.716 6.16202 105.716 7.61402C105.716 9.05402 105.344 10.176 104.6 10.98C103.856 11.784 102.752 12.186 101.288 12.186ZM101.288 10.836C102.152 10.836 102.794 10.572 103.214 10.044C103.634 9.51602 103.844 8.70602 103.844 7.61402C103.844 6.51002 103.634 5.69402 103.214 5.16602C102.794 4.62602 102.152 4.35602 101.288 4.35602C100.424 4.35602 99.7817 4.62602 99.3617 5.16602C98.9537 5.69402 98.7497 6.51002 98.7497 7.61402C98.7497 8.70602 98.9537 9.51602 99.3617 10.044C99.7817 10.572 100.424 10.836 101.288 10.836ZM106.897 10.584H107.347C107.587 10.584 107.755 10.536 107.851 10.44C107.959 10.332 108.013 10.158 108.013 9.91802V5.27402C108.013 5.04602 107.959 4.88402 107.851 4.78802C107.755 4.68002 107.587 4.62602 107.347 4.62602H106.987V3.27602H109.237L109.363 4.50002C109.687 3.99602 110.089 3.62402 110.569 3.38401C111.061 3.13201 111.655 3.00602 112.351 3.00602C112.879 3.00602 113.335 3.12602 113.719 3.36602C114.103 3.60602 114.391 3.94802 114.583 4.39202C114.883 3.91202 115.249 3.56402 115.681 3.34802C116.125 3.12002 116.677 3.00602 117.337 3.00602C118.321 3.00602 119.029 3.25202 119.461 3.74402C119.905 4.23602 120.127 4.97402 120.127 5.95802V9.91802C120.127 10.146 120.181 10.314 120.289 10.422C120.397 10.53 120.565 10.584 120.793 10.584H121.297V11.916H118.237V5.95802C118.237 5.35802 118.123 4.93202 117.895 4.68002C117.667 4.42802 117.283 4.30202 116.743 4.30202C116.191 4.30202 115.753 4.45802 115.429 4.77002C115.117 5.08202 114.961 5.53802 114.961 6.13802V9.91802C114.961 10.158 115.003 10.332 115.087 10.44C115.183 10.536 115.345 10.584 115.573 10.584H116.059V11.916H113.179V6.01202C113.179 5.42402 113.065 4.99202 112.837 4.71602C112.609 4.44002 112.249 4.30202 111.757 4.30202C111.157 4.30202 110.695 4.47002 110.371 4.80602C110.047 5.14202 109.885 5.63402 109.885 6.28202V9.91802C109.885 10.158 109.927 10.332 110.011 10.44C110.107 10.536 110.269 10.584 110.497 10.584H110.983V11.916H106.897V10.584Z" fill="#FA793C"/>
</svg>
